<svg xmlns="http://www.w3.org/2000/svg" xmlns:xlink="http://www.w3.org/1999/xlink" width="500" zoomAndPan="magnify" viewBox="0 0 375 374.999991" height="500" preserveAspectRatio="xMidYMid meet" version="1.0"><defs><g/><clipPath id="99585b6a22"><path d="M 47.511719 47.511719 L 327.261719 47.511719 L 327.261719 327.261719 L 47.511719 327.261719 Z M 47.511719 47.511719 " clip-rule="nonzero"/></clipPath></defs><g clip-path="url(#99585b6a22)"><path fill="#545454" d="M 290.066406 327.550781 L 84.996094 327.550781 C 64.289062 327.550781 47.511719 310.769531 47.511719 290.066406 L 47.511719 84.996094 C 47.511719 64.289062 64.289062 47.511719 84.996094 47.511719 L 290.066406 47.511719 C 310.769531 47.511719 327.550781 64.289062 327.550781 84.996094 L 327.550781 290.066406 C 327.550781 310.769531 310.769531 327.550781 290.066406 327.550781 Z M 290.066406 327.550781 " fill-opacity="1" fill-rule="nonzero"/></g><g fill="#ff66c4" fill-opacity="1"><g transform="translate(90.354462, 225.165256)"><g><path d="M 13.5625 -31.75 L 65.296875 -54.765625 C 66.953125 -55.484375 68.582031 -56.046875 70.1875 -56.453125 C 71.800781 -56.867188 73.257812 -57.195312 74.5625 -57.4375 C 75.988281 -57.5625 77.414062 -57.679688 78.84375 -57.796875 L 78.84375 -59.21875 C 77.414062 -59.34375 75.988281 -59.582031 74.5625 -59.9375 C 73.257812 -60.175781 71.800781 -60.503906 70.1875 -60.921875 C 68.582031 -61.335938 66.953125 -61.898438 65.296875 -62.609375 L 13.5625 -85.625 L 13.5625 -106.5 L 93.484375 -69.921875 L 93.484375 -47.625 L 13.5625 -11.0625 Z M 13.5625 -31.75 "/></g></g></g><g fill="#ff66c4" fill-opacity="1"><g transform="translate(177.589221, 225.165256)"><g><path d="M 10.703125 4.453125 L 96.328125 4.453125 L 96.328125 24.625 L 10.703125 24.625 Z M 10.703125 4.453125 "/></g></g></g></svg>